<svg xmlns="http://www.w3.org/2000/svg" viewBox="0 0 916.75 172"><g id="レイヤー_2" data-name="レイヤー 2"><g id="レイヤー_1-2" data-name="レイヤー 1"><path d="M86,0a86,86,0,1,0,86,86A86,86,0,0,0,86,0ZM35.05,73.08a61.83,61.83,0,0,1,86.37-56.73L45.34,107.22A61.56,61.56,0,0,1,35.05,73.08Zm61.81,61.81a61.68,61.68,0,0,1-22.31-4.17l27.74-45.84h55.24A61.82,61.82,0,0,1,96.86,134.89Zm15.11-66,25.59-42.3a61.67,61.67,0,0,1,20.95,42.3Z"/><path d="M205.58,82.69a9.85,9.85,0,0,1,6.6-2.22q5.85,0,12.72,6.16l9.75-9.75q-10.53-10.53-23-10.53-11.31,0-18.65,6.55a21.22,21.22,0,0,0-7.33,16.54,19.17,19.17,0,0,0,3.2,11.24q3.19,4.36,11.47,9,4.68,2.5,7.41,4.29a33.06,33.06,0,0,1,3.82,2.81,6.8,6.8,0,0,1,2.27,5.31,7.69,7.69,0,0,1-2.7,6.09,10.48,10.48,0,0,1-7.14,2.34q-7.87,0-14.82-8.35L177.85,130q10.6,14.6,26.76,14.59,11.87,0,19.27-6.24t7.26-16.78q0-7.26-3.59-11.78-3.36-4.61-13.27-10.15-6.94-3.81-9.12-6.08A7.32,7.32,0,0,1,203,88.19,7,7,0,0,1,205.58,82.69Z"/><polygon points="278.04 34.67 260.79 34.67 256.58 68.76 246.82 68.76 244.87 84.76 254.63 84.76 247.53 142.27 264.77 142.27 271.87 84.76 287.79 84.76 289.74 68.76 273.82 68.76 278.04 34.67"/><path d="M336.4,66.81q-8.89,0-17.63,8.27l.78-6.32H302.3l-9.05,73.51h17.24L315,105.59a70.73,70.73,0,0,1,1.91-10.45A25,25,0,0,1,320,88a11.57,11.57,0,0,1,4.33-4.06,12.39,12.39,0,0,1,5.77-1.29q4.76,0,9.52,4.06l11-14.2A20.85,20.85,0,0,0,336.4,66.81Z"/><path d="M386.35,66.35q-17.79,0-29.65,11.39t-11.78,28.4q0,16.69,11.39,27.62t29.18,10.85q17.08,0,28.72-11.47t11.7-28.33q0-17.09-11.08-27.7T386.35,66.35Zm15.53,56.49a21.31,21.31,0,0,1-16.7,7.41q-10.14,0-16.54-6.79-6.4-6.63-6.4-17.55t6.79-18a22.72,22.72,0,0,1,17.16-7.1q10,0,16.16,6.4,6.15,6.16,6.16,16.78Q408.51,115.51,401.88,122.84Z"/><path d="M477.42,67Q467,67,456.74,75.55l.78-6.79H440.35l-9.05,73.51h17.25l4.37-35.43c.36-3,.78-5.58,1.24-7.84a29.55,29.55,0,0,1,1.72-5.73,19.42,19.42,0,0,1,5.78-7.81,17,17,0,0,1,11.39-4q10.77,0,10.77,10,0,1.48-.12,3.36c-.08,1.25-.22,2.68-.43,4.29L478,142.27h17.17l4.92-39.48A116,116,0,0,0,501,89.36Q501,79,494.66,73,488.18,67,477.42,67Z"/><path d="M575.58,78.44a37.55,37.55,0,0,0-11.47-8.9A31.75,31.75,0,0,0,550.69,67Q534,67,523.31,78.6t-10.54,29.8q0,15.76,9.21,25.67t23.8,9.92q11.85,0,22.94-9.68l-1,8H585l9-73.51H576.76ZM566.06,122q-6.93,7.72-16.46,7.73a17.9,17.9,0,0,1-14-6.17q-5.47-6.17-5.47-15.84,0-11.07,6.56-18.73a20.64,20.64,0,0,1,16.23-7.56,18.72,18.72,0,0,1,14.51,6.16Q573,93.66,573,103.41A27.17,27.17,0,0,1,566.06,122Z"/><path d="M649.25,112.38q-1.17,9.6-4.68,13.42t-10.92,3.83Q620,129.63,620,118c0-.88,0-2,.16-3.31s.26-2.88.47-4.65l5.07-41.28H608.44l-4.83,39.72q-.39,3.12-.59,5.54c-.13,1.61-.19,3-.19,4.22q0,11.78,8.11,18.8t21.69,7q14.28,0,23-6.87a23.37,23.37,0,0,0,7.34-9.29,48.76,48.76,0,0,0,2-6.79,88.21,88.21,0,0,0,1.56-9.51l5.22-42.77H654.64Z"/><polygon points="715.42 34.67 698.18 34.67 693.97 68.76 684.21 68.76 682.26 84.76 692.02 84.76 684.92 142.27 702.16 142.27 709.26 84.76 725.18 84.76 727.13 68.76 711.21 68.76 715.42 34.67"/><path d="M751.34,34.13a9.2,9.2,0,0,0-9.13,9.21,9.72,9.72,0,0,0,2.73,6.78,9.07,9.07,0,0,0,6.64,2.81,9.32,9.32,0,0,0,9.28-9.21A9.06,9.06,0,0,0,758,37,9,9,0,0,0,751.34,34.13Z"/><polygon points="730.56 142.27 747.81 142.27 756.86 68.76 739.62 68.76 730.56 142.27"/><path d="M776.37,78q-10.85,11.55-10.84,28.8,0,16.77,10.06,27.3t26.3,10.54a50.52,50.52,0,0,0,19-4.06l2.26-18.18q-9.75,7.89-18.88,7.88a20.23,20.23,0,0,1-15.53-6.47q-5.94-6.41-5.93-17.09,0-11.4,6.32-18.65a20.45,20.45,0,0,1,16.15-7.26,21.22,21.22,0,0,1,11.24,2.89q4.83,3,10.14,9.75l2.19-17.56q-12.1-9.51-25.36-9.51A35.75,35.75,0,0,0,776.37,78Z"/><path d="M899.51,68.76l-1.18,9.68a37.55,37.55,0,0,0-11.47-8.9A31.75,31.75,0,0,0,873.44,67q-16.7,0-27.39,11.63-10.53,11.63-10.53,29.8,0,15.76,9.21,25.67t23.8,9.92q11.85,0,22.94-9.68l-1,8H907.7l9-73.51ZM888.81,122q-6.94,7.72-16.46,7.73a17.9,17.9,0,0,1-14-6.17q-5.47-6.17-5.47-15.84,0-11.07,6.56-18.73a20.64,20.64,0,0,1,16.23-7.56,18.72,18.72,0,0,1,14.51,6.16q5.63,6.09,5.62,15.84A27.17,27.17,0,0,1,888.81,122Z"/></g></g></svg>