<svg xmlns="http://www.w3.org/2000/svg" viewBox="0 0 738.9 110.48"><defs><style>.cls-1{fill:#fff;}</style></defs><g id="レイヤー_2" data-name="レイヤー 2"><g id="レイヤー_1-2" data-name="レイヤー 1"><path class="cls-1" d="M27.74,48.57a9.78,9.78,0,0,1,6.59-2.23q5.85,0,12.72,6.17l9.76-9.76q-10.55-10.53-23-10.53-11.33,0-18.65,6.55A21.24,21.24,0,0,0,7.8,55.31,19.22,19.22,0,0,0,11,66.55q3.2,4.38,11.47,9,4.68,2.51,7.42,4.3a30.83,30.83,0,0,1,3.82,2.81A6.77,6.77,0,0,1,36,87.93,7.7,7.7,0,0,1,33.28,94a10.48,10.48,0,0,1-7.14,2.34q-7.89,0-14.83-8.35L0,95.89q10.61,14.6,26.76,14.59,11.86,0,19.28-6.24,7.26-6.31,7.25-16.78,0-7.24-3.58-11.78-3.36-4.61-13.27-10.14-6.94-3.83-9.13-6.09a7.28,7.28,0,0,1-2.18-5.38A6.93,6.93,0,0,1,27.74,48.57Z"/><polygon class="cls-1" points="100.19 0.54 82.94 0.54 78.73 34.64 68.98 34.64 67.03 50.63 76.78 50.63 69.68 108.14 86.92 108.14 94.03 50.63 109.94 50.63 111.89 34.64 95.98 34.64 100.19 0.54"/><path class="cls-1" d="M158.56,32.69q-8.91,0-17.64,8.27l.78-6.32H124.46l-9,73.5h17.24l4.53-36.67A68.36,68.36,0,0,1,139.09,61a25,25,0,0,1,3-7.14,11.73,11.73,0,0,1,4.33-4.06,12.52,12.52,0,0,1,5.78-1.28q4.75,0,9.51,4l11-14.2A20.9,20.9,0,0,0,158.56,32.69Z"/><path class="cls-1" d="M208.5,32.22q-17.79,0-29.65,11.39T167.07,72q0,16.71,11.39,27.63t29.19,10.84q17.08,0,28.71-11.47t11.7-28.32q0-17.1-11.08-27.7Q226,32.22,208.5,32.22ZM224,88.71a21.31,21.31,0,0,1-16.7,7.41q-10.14,0-16.54-6.78-6.39-6.63-6.4-17.56t6.79-18a22.76,22.76,0,0,1,17.17-7.1q10,0,16.15,6.4,6.17,6.16,6.16,16.78Q230.66,81.38,224,88.71Z"/><path class="cls-1" d="M299.57,32.84q-10.45,0-20.68,8.59l.78-6.79H262.51l-9,73.5H270.7l4.37-35.42c.36-3,.78-5.58,1.25-7.85A29.55,29.55,0,0,1,278,59.14a19.39,19.39,0,0,1,5.77-7.8,17,17,0,0,1,11.39-4.06q10.77,0,10.77,10c0,1,0,2.1-.12,3.35s-.22,2.68-.43,4.29l-5.3,43.23h17.17l4.91-39.48a113.89,113.89,0,0,0,.94-13.42q0-10.38-6.32-16.39Q310.34,32.85,299.57,32.84Z"/><path class="cls-1" d="M397.74,44.31a37.46,37.46,0,0,0-11.47-8.89,31.62,31.62,0,0,0-13.42-2.58q-16.69,0-27.39,11.63Q334.93,56.1,334.93,74.28q0,15.75,9.2,25.67t23.8,9.91q11.86,0,22.94-9.68l-1,8H407.1l9-73.5H398.91Zm-9.52,43.54q-6.95,7.73-16.46,7.73a17.91,17.91,0,0,1-14.05-6.17q-5.46-6.15-5.46-15.84,0-11.07,6.55-18.72A20.62,20.62,0,0,1,375,47.28a18.75,18.75,0,0,1,14.52,6.16q5.61,6.09,5.62,15.84A27.17,27.17,0,0,1,388.22,87.85Z"/><path class="cls-1" d="M471.41,78.26q-1.17,9.58-4.68,13.42T455.8,95.5q-13.65,0-13.65-11.63c0-.88.05-2,.15-3.31s.26-2.88.47-4.64l5.07-41.28H430.6l-4.84,39.71c-.26,2.09-.46,3.93-.58,5.55s-.2,3-.2,4.21q0,11.77,8.12,18.8t21.69,7q14.28,0,23-6.87a23.32,23.32,0,0,0,7.33-9.28,46.56,46.56,0,0,0,2-6.79,88.85,88.85,0,0,0,1.56-9.52L494,34.64H476.79Z"/><polygon class="cls-1" points="537.58 0.54 520.34 0.54 516.12 34.64 506.37 34.64 504.42 50.63 514.17 50.63 507.07 108.14 524.32 108.14 531.42 50.63 547.33 50.63 549.28 34.64 533.37 34.64 537.58 0.54"/><path class="cls-1" d="M573.5,0A8.85,8.85,0,0,0,567,2.73a8.81,8.81,0,0,0-2.65,6.48A9.74,9.74,0,0,0,567.1,16a9.07,9.07,0,0,0,6.63,2.81,8.92,8.92,0,0,0,6.56-2.74A8.85,8.85,0,0,0,583,9.6a9.05,9.05,0,0,0-2.89-6.71A8.92,8.92,0,0,0,573.5,0Z"/><polygon class="cls-1" points="552.72 108.14 569.96 108.14 579.01 34.64 561.77 34.64 552.72 108.14"/><path class="cls-1" d="M598.53,43.85q-10.85,11.53-10.85,28.79,0,16.77,10.07,27.31T624,110.48a50.48,50.48,0,0,0,19-4.06l2.26-18.18q-9.75,7.89-18.88,7.88-9.53,0-15.53-6.47T605,72.56q0-11.39,6.32-18.65a20.47,20.47,0,0,1,16.16-7.26,21.28,21.28,0,0,1,11.23,2.89q4.85,3,10.15,9.75L651,41.74Q639,32.22,625.68,32.22A35.7,35.7,0,0,0,598.53,43.85Z"/><path class="cls-1" d="M721.66,34.64l-1.17,9.67A37.46,37.46,0,0,0,709,35.42a31.62,31.62,0,0,0-13.42-2.58q-16.7,0-27.39,11.63Q657.68,56.1,657.68,74.28q0,15.75,9.2,25.67t23.8,9.91q11.87,0,22.94-9.68l-1,8h17.24l9-73.5ZM711,87.85q-6.94,7.73-16.46,7.73a17.91,17.91,0,0,1-14-6.17Q675,83.26,675,73.57q0-11.07,6.55-18.72a20.62,20.62,0,0,1,16.23-7.57,18.75,18.75,0,0,1,14.52,6.16q5.61,6.09,5.62,15.84A27.17,27.17,0,0,1,711,87.85Z"/></g></g></svg>